#!OML:ASF F:\VICON\USERDATA\INSTALL\rory3\rory3.ASF
:FULLY-SPECIFIED
:DEGREES
298
root -0.372786 18.3416 0.740206 -7.20275 -7.0446 -2.00201
lowerback 13.0817 -0.30885 -6.04113
upperback 1.79822 -1.3569 -1.44814
thorax -5.33601 -0.56391 2.11892
lowerneck -2.90368 -8.19859 -9.42468
upperneck 15.9935 -12.0373 9.88024
head 6.49222 -5.797 3.81798
rclavicle 2.22142e-014 -1.43125e-014
rhumerus 9.49198 -19.9274 -51.1184
rradius 77.5374
rwrist 6.82868
rhand -34.5528 -2.51843
rfingers 7.12502
rthumb -7.71311 -32.3578
lclavicle 2.22142e-014 -1.43125e-014
lhumerus -2.479 11.5145 50.6627
lradius 81.0432
lwrist 21.3634
lhand -23.5596 30.799
lfingers 7.12502
lthumb 2.90267 60.759
rfemur -28.6237 7.5531 0.636997
rtibia 33.3256
rfoot 5.45811 -14.5027
rtoes 1.06065
lfemur 8.08535 1.93168 -12.503
ltibia 25.7638
lfoot -22.3315 18.2261
ltoes -13.9339
299
root -0.345923 18.3705 0.703614 -6.96545 -6.6029 -2.25356
lowerback 12.9931 -0.385848 -5.94975
upperback 1.92334 -1.42574 -1.33058
thorax -5.14776 -0.60618 2.20047
lowerneck -2.83394 -8.2467 -9.74543
upperneck 15.2683 -12.0833 10.2964
head 6.30098 -5.82108 4.00379
rclavicle 1.10325e-014 2.06736e-014
rhumerus 7.92521 -17.4382 -51.7932
rradius 76.4865
rwrist 6.44574
rhand -33.6674 -2.43872
rfingers 7.12502
rthumb -6.85847 -32.3076
lclavicle 1.10325e-014 2.06736e-014
lhumerus -3.92351 10.2836 52.1565
lradius 79.6462
lwrist 20.0612
lhand -22.4626 31.394
lfingers 7.12502
lthumb 3.96202 61.3369
rfemur -27.8535 8.57135 0.512109
rtibia 31.1078
rfoot 3.6088 -16.4572
rtoes 1.54005
lfemur 7.76829 1.25492 -12.473
ltibia 25.4969
lfoot -22.249 18.2924
ltoes -13.2404
300
root -0.322326 18.397 0.672359 -6.72482 -6.15297 -2.32114
lowerback 12.8874 -0.39442 -6.01424
upperback 2.00647 -1.43001 -1.26846
thorax -4.99754 -0.61251 2.29999
lowerneck -2.78967 -8.33843 -9.8747
upperneck 14.597 -12.1654 10.4689
head 6.11004 -5.86582 4.07652
rclavicle 1.36664e-014 2.38542e-014
rhumerus 6.22094 -15.0916 -52.4945
rradius 75.5648
rwrist 6.34331
rhand -32.8153 -2.4431
rfingers 7.12502
rthumb -6.0359 -32.3371
lclavicle 1.36664e-014 2.38542e-014
lhumerus -5.40229 8.91156 53.7199
lradius 78.4996
lwrist 18.981
lhand -20.511 31.5326
lfingers 7.12502
lthumb 5.84646 61.432
rfemur -27.1142 9.88089 0.0899262
rtibia 28.8794
rfoot 2.40116 -18.2416
rtoes 0.748836
lfemur 7.46978 0.623873 -12.6245
ltibia 25.1732
lfoot -22.1606 18.3609
ltoes -12.5519
301
root -0.303433 18.422 0.641211 -6.47407 -5.68691 -2.38199
lowerback 12.822 -0.406719 -6.08899
upperback 2.09989 -1.44463 -1.23228
thorax -4.85831 -0.624001 2.38023
lowerneck -2.81792 -8.40985 -9.98739
upperneck 13.894 -12.2337 10.781
head 5.92892 -5.89345 4.18957
rclavicle -1.56543e-014 -1.59028e-015
rhumerus 4.65722 -12.928 -53.4243
rradius 74.6462
rwrist 6.57201
rhand -31.5094 -2.41319
rfingers 7.12502
rthumb -4.77505 -32.3394
lclavicle -1.56543e-014 -1.59028e-015
lhumerus -6.81801 7.52844 55.2324
lradius 77.4411
lwrist 18.3443
lhand -19.356 31.5245
lfingers 7.12502
lthumb 6.96148 61.39
rfemur -26.3886 11.6107 -0.458814
rtibia 26.6751
rfoot 1.05427 -20.2572
rtoes 1.13604
lfemur 7.17786 0.145836 -12.7035
ltibia 24.7932
lfoot -21.7412 18.4089
ltoes -12.5215
302
root -0.287439 18.4445 0.610264 -6.25301 -5.18338 -2.33906
lowerback 12.7746 -0.416464 -6.24317
upperback 2.25095 -1.46695 -1.22849
thorax -4.66622 -0.64129 2.47185
lowerneck -3.10995 -8.49009 -10.1131
upperneck 13.337 -12.3064 11.1123
head 5.84262 -5.91216 4.29755
rclavicle 1.61016e-014 -3.02153e-014
rhumerus 3.19721 -10.9202 -54.4629
rradius 73.7503
rwrist 6.86043
rhand -30.2544 -2.00079
rfingers 7.12502
rthumb -3.56313 -31.9508
lclavicle 1.61016e-014 -3.02153e-014
lhumerus -8.0282 6.22961 56.7717
lradius 76.3592
lwrist 17.9105
lhand -19.257 32.3521
lfingers 7.12502
lthumb 7.05712 62.2145
rfemur -25.6386 13.4335 -1.16412
rtibia 24.4977
rfoot -0.292013 -22.1055
rtoes 2.0106
lfemur 6.91318 -0.235192 -12.8423
ltibia 24.3803
lfoot -21.27 18.3249
ltoes -12.4983
303
root -0.272003 18.4686 0.58251 -5.91732 -4.65169 -2.25884
lowerback 12.6324 -0.411596 -6.38423
upperback 2.36926 -1.46202 -1.23342
thorax -4.45949 -0.645571 2.54086
lowerneck -3.26965 -8.60761 -10.2392
upperneck 12.5972 -12.4134 11.3956
head 5.67886 -5.95786 4.39392
rclavicle -1.5704e-014 0
rhumerus 1.65279 -9.07767 -55.4825
rradius 72.9468
rwrist 7.3186
rhand -29.4648 -1.50271
rfingers 7.12502
rthumb -2.80057 -31.4641
lclavicle -1.5704e-014 0
lhumerus -9.09639 4.89484 58.3907
lradius 75.2474
lwrist 17.2737
lhand -18.6471 33.2583
lfingers 7.12502
lthumb 7.64578 63.1001
rfemur -25.0714 15.1933 -1.95915
rtibia 22.4254
rfoot -1.13141 -23.6587
rtoes 2.8456
lfemur 6.53799 -0.552925 -13.0075
ltibia 23.9463
lfoot -20.8783 18.2139
ltoes -12.7533
